<?xml version="1.0" encoding="UTF-8" standalone="no"?>
<svg xmlns:rdf="http://www.w3.org/1999/02/22-rdf-syntax-ns#" xmlns="http://www.w3.org/2000/svg" xml:space="preserve" height="68.584" viewBox="0 0 128.21499 68.583748" width="128.22" version="1.1" xmlns:cc="http://creativecommons.org/ns#" xmlns:dc="http://purl.org/dc/elements/1.1/"><g transform="matrix(1.25 0 0 -1.25 -544.8 379.2)"><g transform="translate(.48156 .36117)"><path d="m435.84 248.5h101.77v54.067h-101.77v-54.067z" fill="#166936"/><path d="m46.473 5.0605c-0.87125 0-1.6787 0.12867-2.4199 0.38867-0.7425 0.25875-1.3499 0.59461-1.8262 1.0059-0.49625 0.44-0.87602 0.93508-1.1348 1.4863-0.26 0.55125-0.39062 1.1239-0.39062 1.7227 0 0.94375 0.25195 1.7988 0.75195 2.5625 0.50125 0.76375 1.2656 1.3498 2.2969 1.7598 0.44625 0.1725 0.92414 0.34281 1.4316 0.50781 0.5075 0.16625 1.0649 0.34602 1.6699 0.54102 0.92875 0.295 1.6148 0.64719 2.0586 1.0547 0.4425 0.40625 0.66602 0.90906 0.66602 1.5078 0 0.7275-0.26266 1.3298-0.78516 1.8086-0.5225 0.47875-1.272 0.71875-2.252 0.71875-0.7275 0-1.3645-0.15062-1.9082-0.45312-0.54375-0.30375-1.0346-0.69398-1.4746-1.1777-0.425-0.46-0.80125-0.98391-1.125-1.5664-0.32375-0.58375-0.59008-1.1398-0.79883-1.666h-0.92969l0.14062 5.5449h0.91797l0.74609-0.75781c0.5625 0.3175 1.2486 0.59227 2.0586 0.82227 0.81125 0.23125 1.6848 0.3457 2.6211 0.3457 1.0088 0 1.8902-0.12219 2.6465-0.36719 0.75625-0.245 1.4238-0.59383 2-1.0488 0.525-0.41 0.94391-0.92492 1.2539-1.5449 0.30875-0.62 0.46484-1.2613 0.46484-1.9238 0-1.0512-0.27266-1.9326-0.81641-2.6426-0.545-0.70875-1.3378-1.2662-2.3828-1.6699-0.4325-0.165-0.92672-0.33828-1.4805-0.51953-0.555-0.18-1.0991-0.35906-1.6328-0.53906-0.9075-0.295-1.5752-0.63664-2.0039-1.0254-0.42875-0.38875-0.64258-0.89141-0.64258-1.5039 0-0.64875 0.24648-1.1921 0.74024-1.6309 0.49375-0.44 1.1288-0.66016 1.9062-0.66016 0.62 0 1.1598 0.12555 1.6211 0.37305 0.46125 0.24875 0.87016 0.5825 1.2227 1 0.32375 0.38875 0.63258 0.87734 0.92383 1.4648 0.2925 0.5875 0.54547 1.1602 0.76172 1.7227h0.92969l-0.08789-5.2305h-0.93945l-0.6582 0.64844c-0.42625-0.2375-1.0095-0.47328-1.752-0.70703-0.7425-0.235-1.5387-0.35156-2.3887-0.35156zm-17.258 0.1934c-1.015 2.45-1.9445 4.6914-2.7832 6.7227-0.83875 2.0325-1.6767 4.0609-2.5117 6.0859-0.1375 0.345-0.30867 0.64523-0.51367 0.89648-0.205 0.2525-0.45695 0.46422-0.75195 0.63672-0.1725 0.10875-0.40828 0.19461-0.70703 0.25586s-0.56719 0.09758-0.80469 0.11133v0.84375h6.2891v-0.84375c-0.815-0.07125-1.3961-0.18906-1.7461-0.35156-0.34875-0.16125-0.52344-0.35664-0.52344-0.58789 0-0.07125 0.01211-0.19695 0.03711-0.37695s0.10664-0.4732 0.24414-0.87695c0.1075-0.31 0.23531-0.66234 0.38281-1.0586 0.1475-0.39625 0.28375-0.74211 0.40625-1.0371h5.2949l1.3086 3.1777c0.05 0.1225 0.08055 0.21977 0.0918 0.29102 0.01125 0.0725 0.01563 0.13586 0.01563 0.19336 0 0.165-0.26281 0.30547-0.78906 0.41797-0.52625 0.11125-0.9843 0.18024-1.373 0.20898v0.84375h8.3535v-0.84375c-0.21625-0.01375-0.45641-0.04992-0.72266-0.10742-0.2675-0.0575-0.50188-0.14352-0.70312-0.25977-0.267-0.158-0.47-0.325-0.614-0.502-0.144-0.176-0.264-0.374-0.358-0.59-0.5625-1.325-1.241-2.9949-2.041-5.0137-0.8-2.016-1.907-4.7623-3.32-8.2361h-2.1602zm-23.76 0.2168v0.84375c0.1725 0.02125 0.42688 0.068125 0.76562 0.14062 0.33875 0.0725 0.60352 0.15008 0.79102 0.23633 0.3025 0.1375 0.49227 0.29094 0.57227 0.46094 0.07875 0.16875 0.11914 0.38383 0.11914 0.64258v10.818c0 0.27375-0.048828 0.49953-0.14258 0.67578-0.0925 0.17625-0.27508 0.3225-0.54883 0.4375-0.145 0.0575-0.39133 0.10664-0.73633 0.15039-0.34625 0.04375-0.61906 0.07219-0.82031 0.08594v0.84375h14.383l0.29297-4.7773h-0.78906c-0.13625 0.36-0.42102 0.9032-0.85352 1.627-0.43125 0.725-0.82297 1.2615-1.168 1.6152-0.13 0.1375-0.32539 0.24195-0.58789 0.31445-0.26375 0.07125-0.54711 0.12516-0.84961 0.16016-0.2675 0.03625-0.57594 0.05891-0.92969 0.06641-0.3525 0.0075-0.65375 0.01172-0.90625 0.01172-0.54 0-0.96875-0.02266-1.2812-0.06641-0.31375-0.04375-0.56023-0.13328-0.74023-0.26953-0.1875-0.14375-0.31602-0.35109-0.38477-0.62109-0.06875-0.27125-0.10156-0.63641-0.10156-1.0977v-4.4199h1.5762c0.425 0 0.8 0.04899 1.125 0.14648 0.32375 0.09625 0.60625 0.27516 0.84375 0.53516 0.15875 0.1725 0.3257 0.48781 0.50195 0.94531s0.28633 0.83617 0.33008 1.1387h0.82226v-6.3965h-0.82226c-0.05125 0.31-0.16133 0.67234-0.33008 1.0898-0.16875 0.41875-0.3357 0.7107-0.50195 0.87695-0.26625 0.26625-0.56297 0.44726-0.88672 0.54102-0.32375 0.09375-0.68578 0.13867-1.082 0.13867h-1.5762v-5.9219h2.2266c0.2525 0 0.57008 0.00562 0.95508 0.015625 0.38625 0.01125 0.68609 0.04375 0.90234 0.09375 0.505 0.1075 1.0122 0.46109 1.5234 1.0586 0.5125 0.59875 0.87328 1.1877 1.082 1.7715h0.82226v-3.9121h-13.596zm48.012 0v4.3887h0.83203c0.2225-0.655 0.58047-1.3574 1.0742-2.1074 0.49375-0.74875 0.94844-1.1534 1.3672-1.2109 0.23-0.02875 0.51672-0.053672 0.85547-0.076172 0.3375-0.02125 0.63-0.033203 0.875-0.033203h0.50586v12.139c0 0.26625-0.04492 0.49641-0.13867 0.69141-0.09375 0.19375-0.28125 0.34859-0.5625 0.46484-0.13625 0.0575-0.39469 0.10578-0.77344 0.14453-0.3775 0.04-0.67086 0.0693-0.88086 0.0918v0.84375h8.5488v-0.84375c-0.24375-0.02875-0.54188-0.07578-0.89062-0.14453-0.35-0.06875-0.60844-0.13617-0.77344-0.20117-0.27375-0.115-0.45703-0.27-0.55078-0.46875-0.09375-0.1975-0.14062-0.4275-0.14062-0.6875v-12.029h0.50781c0.245 0 0.53625 0.011953 0.875 0.033203 0.33875 0.0225 0.62352 0.047422 0.85352 0.076172 0.41875 0.0575 0.87344 0.46219 1.3672 1.2109 0.49375 0.75 0.85242 1.4524 1.0762 2.1074h0.83203v-4.3887h-14.859zm16.178 0v0.84375c0.1725 0.02125 0.42688 0.068125 0.76562 0.14062 0.33875 0.0725 0.60352 0.15008 0.79102 0.23633 0.3025 0.1375 0.49226 0.29094 0.57227 0.46094 0.07875 0.16875 0.11914 0.38383 0.11914 0.64258v10.818c0 0.27375-0.04812 0.49953-0.14062 0.67578-0.095 0.17625-0.27703 0.3225-0.55078 0.4375-0.145 0.0575-0.38938 0.10664-0.73438 0.15039-0.34625 0.04375-0.62102 0.07219-0.82227 0.08594v0.84375h14.385l0.29102-4.7773h-0.78906c-0.13625 0.36-0.42227 0.9032-0.85352 1.627-0.4325 0.725-0.82102 1.2615-1.166 1.6152-0.13 0.1375-0.32805 0.24195-0.5918 0.31445-0.2625 0.07125-0.5432 0.12516-0.8457 0.16016-0.26625 0.03625-0.57914 0.05891-0.93164 0.06641s-0.65375 0.01172-0.90625 0.01172c-0.54 0-0.9675-0.02266-1.2812-0.06641-0.3125-0.04375-0.56023-0.13328-0.74023-0.26953-0.1875-0.14375-0.31602-0.35109-0.38477-0.62109-0.06875-0.27125-0.10156-0.63641-0.10156-1.0977v-4.4199h1.5781c0.42625 0 0.8 0.04899 1.125 0.14648 0.32375 0.09625 0.6043 0.27516 0.8418 0.53516 0.15875 0.1725 0.3257 0.48781 0.50195 0.94531s0.28633 0.83617 0.33008 1.1387h0.82226v-6.3965h-0.82226c-0.05125 0.31-0.16133 0.67234-0.33008 1.0898-0.17 0.41875-0.3357 0.7107-0.50195 0.87695-0.26625 0.26625-0.56297 0.44726-0.88672 0.54102-0.32375 0.09375-0.68383 0.13867-1.0801 0.13867h-1.5781v-5.9219h2.2266c0.2525 0 0.57008 0.00562 0.95508 0.015625 0.38625 0.01125 0.68609 0.04375 0.90234 0.09375 0.505 0.1075 1.0141 0.46109 1.5254 1.0586 0.5125 0.59875 0.87133 1.1877 1.0801 1.7715h0.82226v-3.9121h-13.596zm15.529 0v0.84375c0.18 0.02875 0.42648 0.075625 0.74023 0.14062 0.31375 0.065 0.58516 0.14258 0.81641 0.23633 0.3025 0.13 0.49352 0.28258 0.57226 0.45508 0.07875 0.1725 0.11914 0.38844 0.11914 0.64844v10.816c0 0.27375-0.04687 0.50024-0.14062 0.67773-0.09375 0.17625-0.27703 0.3225-0.55078 0.4375-0.145 0.0575-0.38797 0.10578-0.73047 0.14453-0.3425 0.04-0.61742 0.07055-0.82617 0.0918v0.84375h8.1816v-0.84375c-0.21-0.02125-0.45875-0.0618-0.75-0.12305-0.2925-0.06125-0.50703-0.12219-0.64453-0.17969-0.27375-0.1225-0.45914-0.27312-0.55664-0.45312s-0.14648-0.40016-0.14648-0.66016v-4.6562h0.5957c1.0012 1.21 1.838 2.2748 2.5117 3.1973 0.67375 0.9225 1.5189 2.1625 2.5352 3.7188h5.8789v-0.84375c-0.10875-0.0075-0.29063-0.0282-0.54688-0.06445-0.255-0.03625-0.46461-0.07961-0.63086-0.13086-0.295-0.09375-0.63523-0.3425-1.0215-0.75-0.385-0.40625-0.68961-0.75-0.91211-1.0312-0.70625-0.8725-1.3866-1.7275-2.0391-2.5625-0.6525-0.83625-1.2209-1.5694-1.7109-2.2031 1.26-0.3675 2.1982-0.87805 2.8145-1.5293 0.61625-0.6525 0.92383-1.5161 0.92383-2.5898 0-1.2175-0.49859-2.1273-1.4961-2.7285-0.99875-0.60125-2.4591-0.90234-4.3828-0.90234h-8.6035zm18.537 0v0.86523c0.41875 0.08 0.79164 0.19008 1.1191 0.33008 0.32875 0.14 0.61859 0.33242 0.87109 0.57617 0.2375 0.23125 0.41094 0.50688 0.52344 0.82812 0.11125 0.32125 0.16797 0.66148 0.16797 1.0215v7.2617c0 0.99375-0.0532 1.7038-0.1582 2.125-0.10375 0.42125-0.29618 0.73461-0.57618 0.94336-0.245 0.17375-0.55031 0.30227-0.91406 0.38477-0.36375 0.08375-0.68555 0.1357-0.9668 0.1582v0.8418h6.5918v-0.8418c-0.2525-0.04375-0.59062-0.1275-1.0156-0.25-0.42625-0.1225-0.73469-0.26242-0.92969-0.41992-0.26625-0.21625-0.45813-0.55774-0.57813-1.0215-0.11875-0.465-0.17773-1.1453-0.17773-2.0391v-7.1973l9.5527 11.781h1.9238v-10.885c0-0.915 0.0555-1.6076 0.16797-2.0801 0.11125-0.47125 0.30086-0.805 0.56836-1 0.3025-0.2225 0.63992-0.36242 1.0137-0.41992 0.375-0.0575 0.66399-0.097891 0.86524-0.11914v-0.84375h-6.5801v0.84375c0.25125 0.04375 0.58094 0.12414 0.99219 0.24414 0.41124 0.11875 0.72164 0.26078 0.93164 0.42578 0.26625 0.21625 0.45953 0.55 0.58203 1 0.12375 0.45 0.18359 1.1361 0.18359 2.0586v5.8027l-8.3867-10.375h-5.7715zm-12.453 0.98438h0.85352c1.06 0 1.8767 0.23578 2.4492 0.70703 0.5725 0.4725 0.85938 1.2197 0.85938 2.2422 0 1.2038-0.29125 2.0837-0.875 2.6387-0.58375 0.55375-1.4048 0.83008-2.4648 0.83008h-0.82227v-6.418zm-62.4 2.5938 2.2266 5.5547h-4.4199l2.1934-5.5547zm-23.404 16.013v1.2871h116.31v-1.2871h-116.31zm110.43 5.2441c-0.8175 0-1.588 0.13836-2.3105 0.41211-0.72375 0.2725-1.3495 0.66172-1.877 1.168-0.53125 0.5175-0.95015 1.1356-1.2539 1.8594-0.30375 0.72375-0.45508 1.5319-0.45508 2.4219 0 0.85375 0.15554 1.6273 0.46679 2.3223 0.3125 0.69625 0.73508 1.2872 1.2676 1.7734 0.53625 0.49625 1.157 0.87352 1.8633 1.1348 0.705 0.26 1.4524 0.39062 2.2461 0.39062 0.98125 0 1.8278-0.15047 2.5391-0.44922 0.71-0.29875 1.3292-0.7157 1.8555-1.252 0.50125-0.5175 0.88609-1.1334 1.1523-1.8496 0.26625-0.71625 0.39844-1.4692 0.39844-2.2617 0-0.89-0.15891-1.6827-0.47266-2.3789-0.315-0.695-0.74109-1.288-1.2773-1.7793-0.52125-0.475-1.1378-0.84703-1.8516-1.1133-0.71375-0.265-1.4773-0.39844-2.291-0.39844zm-11.227 0.0078c-0.83375 0-1.6164 0.14203-2.3477 0.42578-0.73125 0.28375-1.3576 0.68492-1.8789 1.2012-0.5325 0.52625-0.94453 1.1484-1.2383 1.8672-0.29375 0.71875-0.44141 1.5-0.44141 2.3438 0 0.84875 0.14625 1.6272 0.4375 2.3359 0.29125 0.7075 0.68906 1.3012 1.1953 1.7812 0.51625 0.49125 1.1234 0.8675 1.8184 1.125 0.69625 0.25875 1.4427 0.38672 2.2402 0.38672 0.665 0 1.2398-0.07758 1.7285-0.23633 0.4875-0.15875 0.93414-0.37891 1.3379-0.66016 0.36875-0.255 0.69211-0.56297 0.97461-0.91797 0.28-0.355 0.53195-0.75703 0.75196-1.207l-0.66016-0.40039c-0.46 0.78875-0.9693 1.3769-1.5293 1.7656-0.56 0.38875-1.1978 0.58203-1.9141 0.58203-0.49 0-0.9368-0.09023-1.3418-0.27148-0.40375-0.18125-0.75453-0.46672-1.0508-0.85547-0.27625-0.37375-0.50062-0.86531-0.67187-1.4766-0.17125-0.61125-0.25782-1.3491-0.25782-2.2129 0-1.5288 0.25266-2.715 0.75391-3.5625 0.5-0.845 1.2309-1.2695 2.1934-1.2695 0.77125 0 1.4266 0.28406 1.9629 0.85156 0.5375 0.5675 0.99711 1.4567 1.3809 2.668h0.67383l-0.0684-3.9707h-0.66602l-0.47656 0.41992c-0.3425-0.18375-0.76156-0.34914-1.2578-0.49414-0.49625-0.14625-1.0459-0.21875-1.6484-0.21875zm-99.201 0.29102v0.61523c0.29625 0.05625 0.56047 0.13367 0.79297 0.23242 0.2325 0.1 0.43844 0.23836 0.61719 0.41211 0.16875 0.16375 0.29305 0.35844 0.37305 0.58594 0.07875 0.2275 0.11914 0.46836 0.11914 0.72461v5.1543c0 0.70625-0.037578 1.2091-0.11133 1.5078-0.075 0.29875-0.21211 0.52117-0.41211 0.66992-0.1677 0.123-0.3829 0.215-0.6404 0.274-0.2587 0.059-0.4887 0.095-0.6875 0.112v0.59766h4.6797v-0.59766c-0.17875-0.03125-0.42141-0.09023-0.72266-0.17773-0.30125-0.08625-0.51945-0.18633-0.6582-0.29883-0.18875-0.15375-0.32641-0.39461-0.41016-0.72461-0.085-0.32875-0.12695-0.81156-0.12695-1.4453v-5.1094l6.7793 8.4141h1.3652v-7.7754c0-0.65 0.04039-1.1435 0.11914-1.4785 0.08-0.33375 0.21359-0.57148 0.40234-0.70898 0.215-0.15875 0.45445-0.25758 0.7207-0.29883 0.26625-0.04 0.47148-0.06898 0.61523-0.08398v-0.59961h-4.6719v0.59961c0.17875 0.03125 0.41578 0.08687 0.70703 0.17188 0.29125 0.08375 0.5107 0.18523 0.6582 0.30274 0.19 0.15375 0.32656 0.39094 0.41406 0.71094 0.08625 0.32 0.13086 0.80594 0.13086 1.4609v4.1191l-5.9512-7.3652h-4.0957zm24.197 0v0.59961c0.20375 0.025 0.38281 0.05906 0.53906 0.10156 0.15625 0.04375 0.30391 0.11383 0.44141 0.20508 0.195 0.12875 0.35211 0.25391 0.47461 0.37891 0.12375 0.125 0.23383 0.32727 0.33008 0.60352 0.3125 0.91 0.69734 2.0364 1.1523 3.3789 0.455 1.3412 1.1079 3.2552 1.9629 5.7402h1.541l2.5938-8.0918 2.875 8.0918h1.541c0.63375-1.8462 1.2438-3.6261 1.8301-5.3398 0.585-1.7125 1.0195-2.9569 1.3008-3.7344 0.08125-0.225 0.17273-0.41742 0.27148-0.57617 0.1-0.15875 0.26695-0.30375 0.50195-0.4375 0.15375-0.08125 0.31-0.14742 0.46875-0.20117 0.1575-0.05375 0.31586-0.08852 0.47461-0.10352v-0.61523h-4.3789v0.61523c0.16875 0.015 0.36625 0.03695 0.59375 0.06445 0.2275 0.02875 0.41289 0.06508 0.55664 0.11133 0.16875 0.05625 0.30234 0.12172 0.40234 0.19922 0.1 0.07625 0.15039 0.16984 0.15039 0.27734 0 0.17875-0.03055 0.38976-0.0918 0.63476s-0.14484 0.55156-0.24609 0.91406c-0.175 0.59375-0.38688 1.3049-0.64062 2.1387-0.2525 0.83375-0.59062 1.9089-1.0156 3.2227l-2.877-8.1777h-1.627l-2.4766 7.9316c-0.5475-1.6512-1.0071-3.0354-1.3809-4.1504-0.37375-1.115-0.62164-1.8708-0.74414-2.2695-0.02-0.0875-0.03914-0.16422-0.05664-0.23047s-0.02734-0.13578-0.02734-0.20703c0-0.035 0.01125-0.0768 0.03125-0.12305s0.07547-0.08891 0.16797-0.12891c0.0975-0.04125 0.23164-0.08234 0.40039-0.12109 0.16875-0.0375 0.42312-0.07594 0.76562-0.11719v-0.58398h-5.8047zm22.102 0v0.59961c0.22 0.015 0.43664 0.0468 0.65039 0.0918 0.215 0.04625 0.42586 0.14789 0.63086 0.30664 0.1625 0.1275 0.28594 0.30008 0.36719 0.51758 0.0825 0.2175 0.12305 0.49016 0.12305 0.81641v5.3926c0 0.62875-0.03492 1.1131-0.10742 1.4531-0.07125 0.34-0.20906 0.58086-0.41406 0.72461-0.18375 0.1325-0.42023 0.2275-0.70898 0.28125-0.29 0.05375-0.4982 0.08656-0.62695 0.10156v0.59961h4.6797v-0.59961c-0.1325-0.015-0.36336-0.07047-0.69336-0.16797-0.33-0.09625-0.56-0.19914-0.6875-0.30664-0.19-0.15375-0.32641-0.39461-0.41016-0.72461-0.085-0.33-0.12695-0.81226-0.12695-1.4473v-6.6172l2.7539 7.4785c0.1125 0.30125 0.26016 0.70188 0.44141 1.2031 0.18125 0.50125 0.29555 0.83711 0.3418 1.0059h0.96484l3.7422-9.5664v8.1309c0 0.205-0.03859 0.37336-0.12109 0.50586-0.08125 0.13375-0.2175 0.2382-0.40625 0.31445-0.0925 0.04125-0.26508 0.07898-0.51758 0.11523-0.25375 0.03625-0.46688 0.06117-0.64062 0.07617v0.59961h5.8984v-0.59961c-0.1275-0.015-0.30852-0.04273-0.54102-0.08398-0.23375-0.04125-0.40141-0.08391-0.50391-0.12891-0.19875-0.0925-0.32883-0.20117-0.39258-0.32617-0.065-0.125-0.09766-0.28109-0.09766-0.46484v-7.707c0-0.17375 0.03266-0.33406 0.09766-0.47656 0.06375-0.14375 0.19383-0.2482 0.39258-0.31445 0.16375-0.05125 0.33562-0.09305 0.51562-0.12305 0.17875-0.03125 0.34992-0.05055 0.51367-0.06055v-0.59961h-4.8242c-0.005 0.0925-0.04273 0.28773-0.11523 0.58398-0.07125 0.2975-0.14516 0.55258-0.22266 0.76758l-2.2637 5.8359-2.6836-7.1875h-5.0078zm27.51 0v0.59961c0.23 0.015 0.42805 0.04133 0.5918 0.08008s0.30961 0.08633 0.44336 0.14258c0.265 0.1025 0.52117 0.27086 0.76367 0.50586s0.44562 0.47008 0.60938 0.70508c0.3275 0.47125 0.72727 1.0409 1.1973 1.7109 0.47 0.66875 0.94016 1.3603 1.4102 2.0703-0.49625 0.57875-0.96797 1.1235-1.418 1.6348-0.45 0.51125-0.85344 0.96734-1.2109 1.3711-0.24625 0.28125-0.48484 0.52969-0.71484 0.74219-0.23 0.21125-0.49281 0.38664-0.78906 0.52539-0.1275 0.05625-0.25867 0.09891-0.38867 0.12891-0.13 0.03125-0.30344 0.05336-0.52344 0.06836v0.59961h4.2246v-0.59961c-0.24125-0.02-0.44734-0.04773-0.62109-0.08398-0.175-0.03625-0.29594-0.07203-0.36719-0.11328-0.0975-0.04625-0.15914-0.09383-0.18164-0.14258-0.0225-0.0475-0.03516-0.11039-0.03516-0.18164 0-0.1325 0.1468-0.40375 0.43555-0.8125s0.96922-1.2341 2.043-2.4766c0.3225 0.48125 0.63289 0.94789 0.93164 1.4004 0.29875 0.4525 0.53805 0.82836 0.7168 1.1309 0.1175 0.18875 0.21109 0.3557 0.27734 0.50195 0.0675 0.145 0.09961 0.25211 0.09961 0.31836 0 0.1225-0.09234 0.21992-0.27734 0.29492-0.18375 0.07375-0.59281 0.12906-1.2266 0.16406v0.59961h6.6348v-0.59961c-0.26125-0.015-0.47016-0.04273-0.62891-0.08398s-0.29812-0.08391-0.42188-0.12891c-0.26-0.1025-0.51336-0.27226-0.75586-0.50976-0.2425-0.23875-0.44195-0.47594-0.5957-0.71094-0.39375-0.5525-0.81-1.1427-1.25-1.7715-0.44-0.62875-0.96719-1.4086-1.5859-2.3398 0.50125-0.5725 0.92453-1.0569 1.2695-1.4531 0.345-0.39625 0.70523-0.80391 1.084-1.2227 0.255-0.28125 0.49133-0.52758 0.70508-0.73633 0.215-0.21 0.48133-0.38555 0.79883-0.5293 0.1625-0.06625 0.30859-0.11648 0.43359-0.14648 0.125-0.03125 0.28547-0.04773 0.48047-0.05273v-0.59961h-4.2441v0.59961c0.5275 0.05125 0.86336 0.11375 1.0059 0.1875 0.14375 0.07375 0.21484 0.18523 0.21484 0.33398 0 0.1275-0.1243 0.36555-0.37305 0.7168-0.2475 0.35-0.85281 1.1007-1.8203 2.252-0.3275-0.50125-0.61945-0.95-0.87695-1.3438-0.25875-0.39375-0.44977-0.69148-0.57227-0.89648-0.14375-0.235-0.24031-0.40758-0.28906-0.51758s-0.07227-0.20219-0.07227-0.27344c0-0.14375 0.1243-0.24976 0.37305-0.32226 0.2475-0.07125 0.63023-0.11672 1.1465-0.13672v-0.59961h-6.6504zm13.527 0v0.59961c0.17375 0.02 0.38109 0.05758 0.62109 0.11133s0.42117 0.10695 0.54492 0.1582c0.19375 0.08125 0.32312 0.18781 0.39062 0.32031 0.06625 0.13375 0.09961 0.28719 0.09961 0.46094v7.7148c0 0.195-0.03352 0.35422-0.10352 0.48047-0.06875 0.125-0.19797 0.22648-0.38672 0.30273-0.1025 0.04125-0.28914 0.07055-0.55664 0.0918-0.26875 0.02-0.47062 0.03492-0.60938 0.04492v0.59961h6.0352v-0.59961c-0.16875-0.01-0.3775-0.03633-0.625-0.08008-0.24875-0.04375-0.4257-0.08781-0.5332-0.13281-0.19375-0.0825-0.32453-0.18836-0.39453-0.31836-0.06875-0.13-0.10352-0.28891-0.10352-0.47266v-7.707c0-0.17875 0.03336-0.33922 0.09961-0.48047 0.06625-0.14 0.19969-0.2443 0.39844-0.31055 0.15875-0.05125 0.35398-0.09164 0.58398-0.11914s0.42047-0.04945 0.57422-0.06445v-0.59961h-6.0352zm-73.555 0.002v0.59766c0.1225 0.01625 0.30367 0.04836 0.54492 0.09961 0.24 0.05125 0.42484 0.10672 0.55859 0.16797 0.21375 0.0975 0.35 0.20617 0.40625 0.32617s0.08398 0.27328 0.08398 0.45703v7.6777c0 0.195-0.03141 0.35226-0.09766 0.47852-0.0675 0.125-0.19883 0.2293-0.39258 0.31055-0.1025 0.04125-0.27524 0.07617-0.52148 0.10742-0.245 0.03-0.43828 0.0525-0.58203 0.0625v0.59766h10.209l0.20703-3.3906h-0.56055c-0.0975 0.25625-0.29922 0.64055-0.60547 1.1543-0.3075 0.51375-0.58383 0.89648-0.83008 1.1465-0.09125 0.0975-0.22977 0.17266-0.41602 0.22266-0.18625 0.05125-0.38852 0.09023-0.60352 0.11523-0.18875 0.02625-0.40891 0.04187-0.66016 0.04687-0.25 0.005-0.46383 0.0059-0.64258 0.0059-0.38375 0-0.68766-0.01367-0.91016-0.04492-0.2225-0.03-0.39789-0.09391-0.52539-0.19141-0.13375-0.1025-0.22274-0.24891-0.27148-0.44141-0.04875-0.19125-0.07422-0.45109-0.07422-0.77734v-3.1387h1.1211c0.3025 0 0.56688 0.03477 0.79688 0.10352 0.23125 0.06875 0.43086 0.19516 0.59961 0.37891 0.1125 0.12375 0.23047 0.34812 0.35547 0.67187 0.12625 0.325 0.20312 0.59555 0.23438 0.81055h0.58203v-4.541h-0.58203c-0.03625 0.22-0.11312 0.47719-0.23438 0.77344-0.12 0.29625-0.23797 0.50555-0.35547 0.62305-0.18875 0.18875-0.39891 0.31656-0.62891 0.38281s-0.48633 0.09961-0.76758 0.09961h-1.1211v-4.2031h1.5801c0.18 0 0.40594 0.0042 0.67969 0.01172 0.2725 0.0075 0.48688 0.02945 0.64062 0.06445 0.3575 0.0775 0.71953 0.32695 1.082 0.75195 0.36375 0.42375 0.61883 0.84406 0.76758 1.2578h0.58203v-2.7754h-9.6484zm48.688 0v0.59766c0.1225 0.01625 0.30367 0.04836 0.54492 0.09961 0.24 0.05125 0.42484 0.10672 0.55859 0.16797 0.21375 0.0975 0.35 0.20617 0.40625 0.32617s0.08398 0.27328 0.08398 0.45703v7.6777c0 0.195-0.03141 0.35226-0.09766 0.47852-0.0675 0.125-0.19883 0.2293-0.39258 0.31055-0.1025 0.04125-0.27524 0.07617-0.52148 0.10742-0.245 0.03-0.43828 0.0525-0.58203 0.0625v0.59766h10.207l0.20898-3.3906h-0.56055c-0.0975 0.25625-0.29922 0.64055-0.60547 1.1543-0.3075 0.51375-0.58383 0.89648-0.83008 1.1465-0.09125 0.0975-0.23172 0.17266-0.41797 0.22266-0.1875 0.05125-0.38656 0.09023-0.60156 0.11523-0.18875 0.02625-0.40891 0.04187-0.66016 0.04687-0.25 0.005-0.46578 0.0059-0.64453 0.0059-0.38375 0-0.6857-0.01367-0.9082-0.04492-0.2225-0.03-0.39789-0.09391-0.52539-0.19141-0.13375-0.1025-0.22274-0.24891-0.27148-0.44141-0.04875-0.19125-0.07422-0.45109-0.07422-0.77734v-3.1387h1.1211c0.3025 0 0.56688 0.03477 0.79688 0.10352 0.23125 0.06875 0.42891 0.19516 0.59766 0.37891 0.1125 0.12375 0.23242 0.34812 0.35742 0.67187 0.12625 0.325 0.20312 0.59555 0.23438 0.81055h0.58203v-4.541h-0.58203c-0.03625 0.22-0.11438 0.47719-0.23438 0.77344s-0.23992 0.50555-0.35742 0.62305c-0.18875 0.18875-0.39891 0.31656-0.62891 0.38281s-0.48438 0.09961-0.76562 0.09961h-1.1211v-4.2031h1.582c0.17875 0 0.40398 0.0042 0.67773 0.01172 0.2725 0.0075 0.48688 0.02945 0.64062 0.06445 0.3575 0.0775 0.71758 0.32695 1.0801 0.75195 0.3625 0.42375 0.61883 0.84406 0.76758 1.2578h0.58398v-2.7754h-9.6484zm47.959 0.45117c0.5425 0 0.99563 0.14062 1.3594 0.42188 0.3625 0.28125 0.65304 0.65609 0.87304 1.1211 0.215 0.465 0.36829 0.99484 0.45704 1.5898 0.09 0.59625 0.13476 1.2079 0.13476 1.8379 0 0.74125-0.0518 1.4066-0.1543 1.9941s-0.26804 1.1151-0.49804 1.5801c-0.215 0.445-0.50274 0.79453-0.86524 1.0508-0.36375 0.255-0.80039 0.38281-1.3066 0.38281-0.51625 0-0.94898-0.12641-1.3027-0.37891-0.3525-0.25375-0.645-0.6075-0.875-1.0625-0.225-0.45-0.38914-0.97633-0.49414-1.5801-0.105-0.60375-0.15821-1.2458-0.15821-1.9258 0-1.6 0.24141-2.8386 0.72266-3.7148 0.48125-0.8775 1.1824-1.3164 2.1074-1.3164zm-110.43 14.688v1.2871h116.31v-1.2871h-116.31zm79.107 5.2637c-0.62625 0-1.2065 0.09305-1.7402 0.2793-0.5325 0.18625-0.9693 0.42766-1.3105 0.72266-0.3575 0.315-0.63141 0.67211-0.81641 1.0684-0.1875 0.39625-0.2793 0.80828-0.2793 1.2383 0 0.6775 0.18031 1.2911 0.53906 1.8398 0.36 0.54875 0.91039 0.97062 1.6504 1.2656 0.32125 0.125 0.6643 0.24648 1.0293 0.36523 0.365 0.12 0.76422 0.24867 1.1992 0.38867 0.6675 0.2125 1.1598 0.46531 1.4785 0.75781 0.3175 0.2925 0.47852 0.65203 0.47852 1.082 0 0.5225-0.1882 0.95508-0.56445 1.2988-0.375 0.345-0.91539 0.51758-1.6191 0.51758-0.5225 0-0.97914-0.10867-1.3691-0.32617-0.39125-0.2175-0.74555-0.49945-1.0605-0.8457-0.305-0.33125-0.57414-0.7082-0.80664-1.127-0.2325-0.41875-0.42617-0.81656-0.57617-1.1953h-0.66602l0.10156 3.9844h0.6582l0.53516-0.54492c0.40375 0.2275 0.89797 0.42484 1.4805 0.58984 0.58125 0.16625 1.2103 0.25 1.8828 0.25 0.725 0 1.3586-0.08742 1.9023-0.26367 0.54375-0.17625 1.0218-0.42766 1.4355-0.75391 0.3775-0.295 0.67789-0.66633 0.90039-1.1113 0.22375-0.445 0.33594-0.90656 0.33594-1.3828 0-0.755-0.19594-1.3877-0.58594-1.8965-0.39125-0.51-0.96289-0.90922-1.7129-1.1992-0.31-0.11875-0.6657-0.2443-1.0645-0.37305-0.39875-0.13-0.78938-0.25867-1.1719-0.38867-0.6525-0.2125-1.132-0.45828-1.4395-0.73828-0.30875-0.28-0.46289-0.63812-0.46289-1.0781 0-0.46625 0.17625-0.85688 0.53125-1.1719 0.35375-0.31625 0.81234-0.47461 1.3711-0.47461 0.445 0 0.83281 0.08883 1.1641 0.26758 0.33125 0.17875 0.62516 0.4175 0.87891 0.71875 0.2325 0.27875 0.45211 0.62953 0.66211 1.0508 0.21 0.4225 0.39258 0.83453 0.54883 1.2383h0.66797l-0.0625-3.7559h-0.67578l-0.47461 0.46484c-0.305-0.17-0.72336-0.34102-1.2559-0.50976-0.53375-0.1675-1.1068-0.25195-1.7168-0.25195zm-43.773 0.29492v0.60742c0.2225 0.03 0.40016 0.06477 0.53516 0.10352s0.29055 0.10633 0.4668 0.20508c0.2425 0.14 0.42 0.27695 0.53125 0.4082 0.11125 0.1325 0.2257 0.32719 0.3457 0.58594 0.305 0.715 0.83273 1.9878 1.584 3.8203 0.75 1.8325 1.4879 3.6359 2.2129 5.4121h1.5605c0.35125-0.86 0.72117-1.7578 1.1074-2.6953 0.385-0.93625 0.74297-1.7977 1.0742-2.584 0.3725-0.875 0.70414-1.6555 0.99414-2.3418 0.29-0.68625 0.51453-1.207 0.67578-1.5645 0.11875-0.25875 0.23883-0.46188 0.36133-0.60938 0.12125-0.1475 0.29438-0.28602 0.51562-0.41602 0.16625-0.0975 0.32617-0.17055 0.48242-0.2168 0.155-0.0475 0.31703-0.07875 0.48828-0.09375v-0.62109h-4.4648v0.62109c0.6425 0.05125 1.0828 0.13484 1.3203 0.24609 0.23875 0.11125 0.35742 0.24781 0.35742 0.41406 0 0.145-0.04195 0.36094-0.12695 0.64844-0.08625 0.2875-0.19352 0.59648-0.32227 0.92773-0.26375 0.68375-0.56976 1.4713-0.91602 2.3613-0.3475 0.89125-0.78414 1.9788-1.3066 3.2676-0.85375-2.1162-1.4986-3.6902-1.9336-4.7227-0.43375-1.0338-0.73539-1.7774-0.90039-2.2324-0.03625-0.10875-0.06258-0.19477-0.08008-0.25977-0.01875-0.065-0.02734-0.12734-0.02734-0.18359 0-0.11375 0.10008-0.2082 0.29883-0.2832s0.57797-0.14734 1.1367-0.21484v-0.58984h-5.9707zm14.059 0v0.60547c0.12375 0.015 0.30703 0.04906 0.55078 0.10156 0.2425 0.05125 0.43141 0.10867 0.56641 0.16992 0.2175 0.09875 0.35391 0.20883 0.41016 0.33008 0.0575 0.1225 0.08594 0.27664 0.08594 0.46289v7.7734c0 0.19625-0.03211 0.35688-0.09961 0.48438-0.0675 0.12625-0.19898 0.2307-0.39648 0.31445-0.10375 0.04125-0.27859 0.07813-0.52734 0.10938-0.24875 0.03-0.44484 0.05055-0.58984 0.06055v0.60742h10.332l0.21094-3.4336h-0.56641c-0.09875 0.25875-0.30328 0.64992-0.61328 1.1699-0.31 0.52-0.59109 0.90641-0.83984 1.1602-0.0925 0.0975-0.23312 0.17211-0.42188 0.22461-0.19 0.05125-0.39188 0.09094-0.60938 0.11719-0.19125 0.02625-0.41422 0.04187-0.66797 0.04687s-0.47109 0.0059-0.65234 0.0059c-0.38875 0-0.69492-0.01367-0.91992-0.04492s-0.4032-0.09461-0.5332-0.19336c-0.13375-0.10375-0.22664-0.25352-0.27539-0.44726-0.05-0.19375-0.07227-0.45781-0.07227-0.78906v-3.1738h1.1328c0.305 0 0.57484 0.03352 0.80859 0.10352 0.2325 0.06875 0.43352 0.19852 0.60352 0.38477 0.11375 0.12375 0.23508 0.35024 0.36133 0.67773 0.1275 0.33 0.20703 0.60281 0.23828 0.82031h0.58984v-4.5957h-0.58984c-0.03625 0.2225-0.11703 0.4832-0.23828 0.7832s-0.24133 0.51016-0.36133 0.62891c-0.19125 0.19125-0.40227 0.32117-0.63477 0.38867s-0.49234 0.09961-0.77734 0.09961h-1.1328v-4.2539h1.5996c0.18 0 0.4093 0.0042 0.68555 0.01172 0.2775 0.0075 0.49344 0.03016 0.64844 0.06641 0.3625 0.0775 0.7282 0.33102 1.0957 0.75977 0.3675 0.43 0.62539 0.85469 0.77539 1.2734h0.58984v-2.8105h-9.7656zm11.578 0v0.60547c0.13 0.02125 0.30625 0.05531 0.53125 0.10156s0.42164 0.10438 0.58789 0.17188c0.2175 0.0925 0.35266 0.20117 0.41016 0.32617 0.05625 0.12375 0.08594 0.27734 0.08594 0.46484v7.7715c0 0.1975-0.03531 0.36008-0.10156 0.48633-0.0675 0.1275-0.19828 0.23195-0.39453 0.31445-0.10375 0.04125-0.27914 0.07672-0.52539 0.10547-0.245 0.02875-0.4425 0.05016-0.59375 0.06641v0.60352h5.8789v-0.60352c-0.15125-0.01625-0.33102-0.0468-0.54102-0.0918-0.21-0.04375-0.36414-0.0857-0.46289-0.12695-0.19625-0.08875-0.32844-0.19617-0.39844-0.32617s-0.10547-0.28641-0.10547-0.47266v-3.3477h0.42773c0.72 0.86875 1.3209 1.6363 1.8047 2.2988 0.485 0.66375 1.0903 1.5524 1.8203 2.6699h4.2246v-0.60352c-0.0775-0.005-0.20883-0.02188-0.39258-0.04687-0.18375-0.02625-0.33438-0.0575-0.45313-0.09375-0.2125-0.0675-0.45688-0.24852-0.73437-0.54102-0.2775-0.2925-0.495-0.53773-0.65625-0.74023-0.5075-0.62625-0.99414-1.2398-1.4629-1.8398-0.46875-0.60125-0.87922-1.129-1.2305-1.584 0.905-0.26375 1.579-0.63086 2.0215-1.0996 0.4425-0.46875 0.66406-1.0881 0.66406-1.8594 0-0.875-0.35797-1.5277-1.0742-1.959-0.7175-0.4325-1.7672-0.65039-3.1484-0.65039h-6.1816zm30.908 0v3.1523h0.59766c0.16125-0.47125 0.41969-0.97617 0.77344-1.5137 0.355-0.53875 0.68242-0.82789 0.98242-0.86914 0.16625-0.02125 0.36953-0.03969 0.61328-0.05469 0.2425-0.01625 0.45265-0.02344 0.6289-0.02344h0.36524v8.7207c0 0.19125-0.0341 0.35609-0.10156 0.49609-0.0675 0.14-0.2018 0.25148-0.4043 0.33398-0.0987 0.04125-0.28344 0.07672-0.55469 0.10547s-0.48281 0.04945-0.63281 0.06445v0.60547h6.1426v-0.60547c-0.17625-0.02125-0.38938-0.05477-0.64063-0.10352s-0.43593-0.09828-0.55468-0.14453c-0.1975-0.0825-0.32899-0.19539-0.39649-0.33789s-0.10156-0.30469-0.10156-0.49219v-8.6426h0.36523c0.17625 0 0.38641 0.0072 0.62891 0.02344 0.24375 0.015 0.44703 0.03344 0.61328 0.05469 0.3 0.04125 0.62742 0.33039 0.98242 0.86914 0.35375 0.5375 0.61219 1.0424 0.77344 1.5137h0.59766v-3.1523h-10.678zm-91.877 0.002v0.58984c0.12375 0.015 0.28297 0.04274 0.48047 0.08398 0.19625 0.04125 0.36234 0.09586 0.49609 0.16211 0.1975 0.10375 0.33039 0.22156 0.40039 0.35156 0.07 0.12875 0.10547 0.28359 0.10547 0.46484v5.6367c0 1.2688 0.43031 2.258 1.2891 2.9668 0.86 0.70875 2.0731 1.0645 3.6406 1.0645 1.3462 0 2.4286-0.36852 3.2461-1.1035 0.8175-0.735 1.2266-1.7059 1.2266-2.9121v-4.0996c0-0.67375 0.03984-1.1774 0.12109-1.5137 0.08-0.3375 0.21976-0.57047 0.41602-0.69922 0.19125-0.135 0.42774-0.22945 0.70898-0.2832 0.2825-0.055 0.49844-0.09047 0.64844-0.10547v-0.60352h-4.7754v0.60352c0.13375 0.02125 0.36938 0.07813 0.70312 0.17188 0.33375 0.0925 0.56812 0.1968 0.70312 0.31055 0.18625 0.145 0.32406 0.38024 0.41406 0.70898 0.09125 0.32875 0.13672 0.82578 0.13672 1.4883v3.7344c0 1.0662-0.25703 1.8751-0.76953 2.4238-0.5125 0.54875-1.2179 0.82226-2.1191 0.82226-0.915 0-1.6145-0.24984-2.0957-0.74609-0.48125-0.4975-0.72266-1.2903-0.72266-2.3828v-5.5586c0-0.1825 0.035312-0.34523 0.10156-0.49023 0.0675-0.145 0.20023-0.2493 0.39648-0.31055 0.17625-0.0575 0.34953-0.10016 0.51953-0.12891 0.17125-0.02875 0.33891-0.04664 0.50391-0.05664v-0.58984h-5.7754zm13.869 0v0.61914c0.3 0.0575 0.56773 0.13703 0.80273 0.23828 0.23625 0.10125 0.4425 0.23781 0.625 0.41406 0.17 0.16625 0.2957 0.36375 0.37695 0.59375 0.08 0.23125 0.12109 0.47562 0.12109 0.73438v5.2188c0 0.71375-0.03828 1.2229-0.11328 1.5254s-0.21477 0.52969-0.41602 0.67969c-0.17625 0.12375-0.395 0.21664-0.65625 0.27539-0.26125 0.06-0.49211 0.09633-0.69336 0.11133v0.60742h4.7363v-0.60742c-0.18125-0.03-0.42547-0.08898-0.73047-0.17774-0.305-0.0875-0.52797-0.18898-0.66797-0.30273-0.19125-0.155-0.32976-0.40062-0.41602-0.73438-0.085-0.33375-0.12695-0.82039-0.12695-1.4629v-5.1719l6.8633 8.5195h1.3828v-7.875c0-0.6575 0.03914-1.1554 0.11914-1.4941 0.08-0.33875 0.21695-0.58 0.4082-0.71875 0.2175-0.16125 0.46172-0.26148 0.73047-0.30273s0.47609-0.07094 0.62109-0.08594v-0.60352h-4.7285v0.60352c0.18125 0.03125 0.41859 0.08953 0.71484 0.17578 0.295 0.085 0.51602 0.18789 0.66602 0.30664 0.19125 0.155 0.33242 0.395 0.41992 0.71875 0.08875 0.3225 0.13281 0.81602 0.13281 1.4785v4.1699l-6.0273-7.4531h-4.1445zm14.25 0v0.60352c0.17625 0.02125 0.38711 0.05953 0.63086 0.11328 0.2425 0.055 0.42578 0.10766 0.55078 0.16016 0.19625 0.0825 0.32828 0.19047 0.39453 0.32422 0.0675 0.135 0.10156 0.29055 0.10156 0.4668v7.8105c0 0.1975-0.03547 0.36008-0.10547 0.48633-0.07 0.1275-0.19938 0.22789-0.39062 0.30664-0.10375 0.04125-0.29195 0.0718-0.56445 0.0918-0.27125 0.02125-0.47719 0.03758-0.61719 0.04883v0.60547h6.1113v-0.60547c-0.17125-0.01125-0.38281-0.03828-0.63281-0.08203-0.25125-0.04375-0.43031-0.08922-0.53906-0.13672-0.19625-0.0825-0.33039-0.19102-0.40039-0.32227-0.07-0.1325-0.10547-0.29031-0.10547-0.47656v-7.8047c0-0.18125 0.03406-0.34188 0.10156-0.48438s0.2018-0.24695 0.4043-0.31445c0.16-0.05125 0.35734-0.09234 0.58984-0.12109s0.42703-0.05016 0.58203-0.06641v-0.60352h-6.1113zm56.443 0v0.60352c0.17625 0.02125 0.38711 0.05953 0.63086 0.11328 0.2425 0.055 0.42578 0.10766 0.55078 0.16016 0.19625 0.0825 0.32828 0.19047 0.39453 0.32422 0.0675 0.135 0.10156 0.29055 0.10156 0.4668v7.8105c0 0.1975-0.03547 0.36008-0.10547 0.48633-0.07 0.1275-0.19938 0.22789-0.39062 0.30664-0.10375 0.04125-0.29195 0.0718-0.56445 0.0918-0.27125 0.02125-0.47719 0.03758-0.61719 0.04883v0.60547h6.1113v-0.60547c-0.17125-0.01125-0.38156-0.03828-0.63281-0.08203s-0.43031-0.08922-0.53906-0.13672c-0.19625-0.0825-0.33039-0.19102-0.40039-0.32227-0.07-0.1325-0.10547-0.29031-0.10547-0.47656v-7.8047c0-0.18125 0.03406-0.34188 0.10156-0.48438s0.2018-0.24695 0.4043-0.31445c0.16-0.05125 0.35734-0.09234 0.58984-0.12109s0.42703-0.05016 0.58203-0.06641v-0.60352h-6.1113zm19.086 0v0.60352c0.16 0.01 0.34031 0.03688 0.53906 0.07813 0.2 0.04125 0.36976 0.10219 0.50976 0.17969 0.18625 0.10875 0.36813 0.24938 0.54688 0.42188 0.17875 0.17375 0.35625 0.4025 0.53125 0.6875 0.3375 0.54875 0.69195 1.1355 1.0644 1.7617 0.37375 0.62625 0.7575 1.2902 1.1562 1.9902 0.14 0.2425 0.2543 0.44125 0.3418 0.59375 0.0888 0.1525 0.1493 0.27625 0.18555 0.375 0.0312 0.0875 0.0516 0.19617 0.0566 0.32617 0.005 0.12875 0.006 0.28117 0.006 0.45117v1.9414c0 0.19625-0.0335 0.3625-0.10352 0.5-0.07 0.13625-0.20008 0.24633-0.39258 0.33008-0.1075 0.04125-0.29906 0.07813-0.57031 0.10938s-0.48 0.05055-0.625 0.06055v0.60742h6.1406v-0.60742c-0.13375-0.01-0.3439-0.04477-0.6289-0.10352-0.28375-0.06-0.4711-0.10828-0.5586-0.14453-0.19625-0.0875-0.33039-0.2018-0.40039-0.3418s-0.10351-0.30203-0.10351-0.48828v-1.5605c0-0.57875 0.0327-0.98641 0.0977-1.2227 0.065-0.235 0.23844-0.57367 0.52344-1.0137 0.435-0.6925 0.83703-1.3288 1.207-1.9062 0.37-0.57625 0.7243-1.1123 1.0606-1.6035 0.16625-0.23875 0.33406-0.45469 0.50781-0.64844 0.1725-0.19375 0.37125-0.35477 0.59375-0.47852 0.14-0.0825 0.28836-0.14711 0.44336-0.19336 0.155-0.0475 0.32547-0.08031 0.51172-0.10156v-0.60352h-4.084v0.60352c0.48125 0.02625 0.82992 0.08594 1.0449 0.17969 0.215 0.0925 0.32226 0.22805 0.32226 0.4043 0 0.14-0.18328 0.51797-0.55078 1.1367-0.3675 0.61875-1.0436 1.7069-2.0273 3.2656-0.47625-0.7925-0.88266-1.4842-1.2227-2.0742-0.33875-0.59-0.59719-1.0524-0.77344-1.3887-0.19125-0.3575-0.32539-0.62172-0.40039-0.79297s-0.11132-0.28555-0.11132-0.3418c0-0.115 0.10023-0.20258 0.30273-0.26758 0.20125-0.06375 0.59188-0.10609 1.1719-0.12109v-0.60352h-6.3125zm-38.309 0.70508h0.61328c0.76125 0 1.3485 0.16906 1.7598 0.50781 0.41125 0.33875 0.61719 0.87633 0.61719 1.6113 0 0.865-0.21016 1.4977-0.62891 1.8965-0.42 0.39875-1.0095 0.59766-1.7695 0.59766h-0.5918v-4.6133z" transform="matrix(.8 0 0 -.8 435.84 302.56)" fill="#fff"/></g></g></svg>
